#N canvas 1445 159 450 554 10;
#N canvas 983 543 450 379 addition_stage 1;
#X obj 144 85 inlet float;
#X obj 68 163 phasor~;
#X obj 144 163 phasor~;
#X obj 222 163 phasor~;
#X obj 68 127 *;
#X obj 222 127 *;
#X obj 83 -54 vsl 15 128 0.9 1 0 0 empty empty Detune- 0 -9 0 10 -4032
-1 -1 0 1;
#X floatatom 101 82 5 0 0 0 - - -;
#X obj 237 -54 vsl 15 128 1 1.1 0 0 empty empty Detune+ 0 -9 0 10 -260097
-1 -1 0 1;
#X floatatom 255 82 5 0 0 0 - - -;
#X obj 144 197 *~ 0.333;
#X obj 144 236 outlet~;
#X connect 0 0 4 0;
#X connect 0 0 2 0;
#X connect 0 0 5 0;
#X connect 1 0 10 0;
#X connect 2 0 10 0;
#X connect 3 0 10 0;
#X connect 4 0 1 0;
#X connect 5 0 3 0;
#X connect 6 0 7 0;
#X connect 6 0 4 1;
#X connect 8 0 9 0;
#X connect 8 0 5 1;
#X connect 10 0 11 0;
#X restore 47 180 pd addition_stage;
#N canvas 983 161 450 300 filter_stage 1;
#X obj 48 28 inlet~;
#X obj 141 71 *;
#X obj 245 26 hsl 128 15 0 25 0 0 empty empty Filter_freq._mult. -2
-8 0 10 -260097 -1 -1 0 1;
#X floatatom 242 46 5 0 0 0 - - -;
#X obj 141 137 pack 0 300;
#X obj 245 96 hsl 128 15 10 1000 0 0 empty empty Filter_speed -2 -8
0 10 -260097 -1 -1 0 1;
#X floatatom 242 131 5 0 0 0 - - -;
#X obj 141 174 line~;
#X obj 49 222 vcf~ 220 3;
#X obj 246 179 hsl 128 15 0 10 0 0 empty empty Filter_sharpness_(Q)
-2 -8 0 10 -260097 -1 -1 0 1;
#X floatatom 243 214 5 0 0 0 - - -;
#X obj 49 262 outlet~;
#X obj 141 27 inlet float;
#X connect 0 0 8 0;
#X connect 1 0 4 0;
#X connect 2 0 3 0;
#X connect 2 0 1 1;
#X connect 4 0 7 0;
#X connect 5 0 6 0;
#X connect 5 0 4 1;
#X connect 7 0 8 1;
#X connect 8 0 11 0;
#X connect 9 0 10 0;
#X connect 9 0 8 2;
#X connect 12 0 1 0;
#X restore 67 235 pd filter_stage;
#N canvas 17 727 450 300 envelope_stage 1;
#X obj 189 28 inlet bang;
#X msg 189 111 1 150 \, 0.915 150 \, 0 1000 500;
#X obj 68 206 *~;
#X obj 69 30 inlet~ audio;
#X obj 67 251 outlet~ audio;
#X obj 107 167 vline~;
#X obj 215 70 bng 15 250 50 0 empty empty empty 17 7 0 10 -262144 -1
-1;
#X connect 0 0 6 0;
#X connect 1 0 5 0;
#X connect 2 0 4 0;
#X connect 3 0 2 0;
#X connect 5 0 2 1;
#X connect 6 0 1 0;
#X restore 89 288 pd envelope_stage;
#X obj 90 346 dac~;
#X floatatom 83 68 5 1 300 0 global_bpm - global_bpm;
#X msg 225 383 start;
#X msg 240 409 stop;
#X obj 215 470 writesf~ 2;
#X msg 214 361 open test4.wav;
#X obj 154 116 seq/sequencer8;
#X connect 0 0 1 0;
#X connect 1 0 2 0;
#X connect 2 0 3 0;
#X connect 2 0 3 1;
#X connect 2 0 7 0;
#X connect 2 0 7 1;
#X connect 5 0 7 0;
#X connect 6 0 7 0;
#X connect 8 0 7 0;
#X connect 9 0 0 0;
#X connect 9 0 1 1;
#X connect 9 1 2 1;
