#N canvas 1192 118 551 444 10;
#X obj 90 398 dac~;
#X msg 254 33 stop;
#X floatatom 155 33 5 0 0 0 - - -;
#X msg 205 33 start;
#X obj 205 67 seq/metro;
#X obj 47 104 seq/fileseq test3.txt;
#X obj 47 145 instr/detune;
#N canvas 1 95 318 225 recorder 0;
#X msg 163 87 start;
#X msg 178 113 stop;
#X obj 153 174 writesf~ 2;
#X msg 153 57 open test4.wav;
#X obj 27 57 inlet~;
#X obj 82 57 inlet~;
#X connect 0 0 2 0;
#X connect 1 0 2 0;
#X connect 3 0 2 0;
#X connect 4 0 2 0;
#X connect 5 0 2 0;
#X restore 140 398 pd recorder;
#X connect 1 0 4 0;
#X connect 2 0 4 0;
#X connect 3 0 4 0;
#X connect 4 0 5 0;
#X connect 4 0 6 1;
#X connect 5 0 6 0;
#X connect 6 0 0 0;
#X connect 6 0 0 1;
