#N canvas 855 143 543 444 10;
#N canvas 47 122 315 344 addition_stage 0;
#X obj 110 108 inlet float;
#X obj 34 186 phasor~;
#X obj 110 186 phasor~;
#X obj 188 186 phasor~;
#X obj 34 150 *;
#X obj 188 150 *;
#X obj 49 -31 vsl 15 128 0.9 1 0 0 empty empty Detune- 0 -9 0 10 -4032
-1 -1 12300 1;
#X floatatom 67 105 5 0 0 0 - - -, f 5;
#X obj 203 -31 vsl 15 128 1 1.1 0 0 empty empty Detune+ 0 -9 0 10 -260097
-1 -1 600 1;
#X floatatom 221 105 5 0 0 0 - - -, f 5;
#X obj 110 220 *~ 0.333;
#X obj 110 259 outlet~;
#X connect 0 0 4 0;
#X connect 0 0 2 0;
#X connect 0 0 5 0;
#X connect 1 0 10 0;
#X connect 2 0 10 0;
#X connect 3 0 10 0;
#X connect 4 0 1 0;
#X connect 5 0 3 0;
#X connect 6 0 7 0;
#X connect 6 0 4 1;
#X connect 8 0 9 0;
#X connect 8 0 5 1;
#X connect 10 0 11 0;
#X restore 347 236 pd addition_stage;
#N canvas 562 188 450 300 filter_stage 0;
#X obj 48 28 inlet~;
#X obj 141 71 *;
#X obj 245 26 hsl 128 15 0 25 0 0 empty empty Filter_freq._mult. -2
-8 0 10 -260097 -1 -1 9700 1;
#X floatatom 242 46 5 0 0 0 - - -, f 5;
#X obj 141 137 pack 0 300;
#X obj 245 96 hsl 128 15 10 1000 0 0 empty empty Filter_speed -2 -8
0 10 -260097 -1 -1 4700 1;
#X floatatom 242 131 5 0 0 0 - - -, f 5;
#X obj 141 174 line~;
#X obj 49 222 vcf~ 220 3;
#X obj 246 179 hsl 128 15 0 10 0 0 empty empty Filter_sharpness_(Q)
-2 -8 0 10 -260097 -1 -1 300 1;
#X floatatom 243 214 5 0 0 0 - - -, f 5;
#X obj 49 262 outlet~;
#X obj 141 27 inlet float;
#X connect 0 0 8 0;
#X connect 1 0 4 0;
#X connect 2 0 3 0;
#X connect 2 0 1 1;
#X connect 4 0 7 0;
#X connect 5 0 6 0;
#X connect 5 0 4 1;
#X connect 7 0 8 1;
#X connect 8 0 11 0;
#X connect 9 0 10 0;
#X connect 9 0 8 2;
#X connect 12 0 1 0;
#X restore 347 266 pd filter_stage;
#N canvas 13 757 450 300 envelope_stage 0;
#X obj 189 28 inlet bang;
#X msg 189 111 1 150 \, 0.915 150 \, 0 1000 500;
#X obj 68 206 *~;
#X obj 69 30 inlet~ audio;
#X obj 67 251 outlet~ audio;
#X obj 107 167 vline~;
#X obj 215 70 bng 15 250 50 0 empty empty empty 17 7 0 10 -262144 -1
-1;
#X connect 0 0 6 0;
#X connect 1 0 5 0;
#X connect 2 0 4 0;
#X connect 3 0 2 0;
#X connect 5 0 2 1;
#X connect 6 0 1 0;
#X restore 89 333 pd envelope_stage;
#X obj 90 398 dac~;
#X msg 254 33 stop;
#X floatatom 155 33 5 0 0 0 - - -, f 5;
#X msg 205 33 start;
#X obj 205 67 seq/metro;
#X obj 205 105 bng 15 250 50 0 empty empty empty 17 7 0 10 -262144
-1 -1;
#X obj 47 104 seq/fileseq test3.txt;
#X obj 47 145 instr/detune;
#N canvas 1 95 318 225 recorder 0;
#X msg 163 87 start;
#X msg 178 113 stop;
#X obj 153 174 writesf~ 2;
#X msg 153 57 open test4.wav;
#X obj 27 57 inlet~;
#X obj 82 57 inlet~;
#X connect 0 0 2 0;
#X connect 1 0 2 0;
#X connect 3 0 2 0;
#X connect 4 0 2 0;
#X connect 5 0 2 0;
#X restore 140 398 pd recorder;
#X connect 2 0 3 0;
#X connect 2 0 3 1;
#X connect 2 0 11 0;
#X connect 2 0 11 1;
#X connect 4 0 7 0;
#X connect 5 0 7 0;
#X connect 6 0 7 0;
#X connect 7 0 8 0;
#X connect 7 0 9 0;
#X connect 8 0 2 1;
#X connect 9 0 10 0;
#X connect 10 0 2 0;
