#N canvas 663 151 364 506 10;
#X obj 34 55 vsl 30 128 0.01 1 1 0 \$0-detune-minus \$0-detune-patch-minus
- 0 -9 0 10 -4032 -1 -1 291 1;
#X obj 69 55 vsl 30 128 0.01 1 1 0 \$0-detune-plus \$0-detune-patch-plus
+ 0 -9 0 10 -260097 -1 -1 361 1;
#X obj 22 411 outlet~ audio;
#X text 11 1 Additive double detune synthesizer;
#X obj 23 281 inlet freq;
#X obj 12 54 vradio 14 1 0 8 \$0-detune-patch-number empty mem 0 -8
0 10 -228856 -1 -1 0;
#X text 21 244 the actual synth;
#X obj 12 170 bng 15 250 50 0 \$0-save empty empty 17 7 0 10 -262144
-1 -1;
#N canvas 1007 188 865 702 memory 0;
#X obj 460 60 receive \$0-detune;
#X obj 460 113 / 127;
#X obj 499 113 / 127;
#X obj 460 134 send \$0-detune-patch-minus;
#X obj 460 155 send \$0-detune-patch-plus;
#X obj 80 131 textfile;
#X msg 80 83 read ../mem/detune-\$1.txt;
#X floatatom 80 63 5 0 0 0 - #0-detune-patch-number -;
#X msg 37 131 bang;
#X msg 90 107 rewind;
#X obj 80 153 send \$0-detune;
#X obj 390 598 textfile;
#X obj 132 226 receive \$0-save;
#X text 37 37 Loading;
#X text 39 206 Storing;
#X text 459 38 Assigning;
#X floatatom 98 490 5 0 0 0 - #0-detune-patch-number -;
#X msg 390 271 clear;
#X obj 171 294 ../util/param \$0-detune minus;
#X msg 37 515 write;
#X msg 98 515 ../mem/detune-\$1.txt \;;
#X obj 37 557 list;
#X msg 37 581 \$1 \$2;
#X obj 171 314 ../util/param \$0-detune plus;
#X obj 537 113 / 127;
#X obj 575 113 / 127;
#X obj 613 113 / 127;
#X obj 652 113 / 127;
#X obj 171 334 ../util/param \$0-detune a;
#X obj 171 354 ../util/param \$0-detune d;
#X obj 171 374 ../util/param \$0-detune s;
#X obj 171 394 ../util/param \$0-detune r;
#X obj 132 254 t b b b;
#X obj 460 176 send \$0-detune-patch-a;
#X obj 460 196 send \$0-detune-patch-d;
#X obj 460 216 send \$0-detune-patch-s;
#X obj 460 236 send \$0-detune-patch-r;
#X obj 460 81 route minus plus a d s r multi speed sharpness;
#X obj 691 113 / 127;
#X obj 729 113 / 127;
#X obj 768 113 / 127;
#X obj 460 256 send \$0-detune-patch-multi;
#X obj 460 276 send \$0-detune-patch-speed;
#X obj 460 296 send \$0-detune-patch-sharpness;
#X obj 171 414 ../util/param \$0-detune multi;
#X obj 171 434 ../util/param \$0-detune speed;
#X obj 171 454 ../util/param \$0-detune sharpness;
#X connect 0 0 37 0;
#X connect 1 0 3 0;
#X connect 2 0 4 0;
#X connect 5 0 10 0;
#X connect 5 0 8 0;
#X connect 6 0 5 0;
#X connect 6 0 9 0;
#X connect 6 0 8 0;
#X connect 7 0 6 0;
#X connect 8 0 5 0;
#X connect 9 0 5 0;
#X connect 12 0 32 0;
#X connect 16 0 20 0;
#X connect 17 0 11 0;
#X connect 18 0 11 0;
#X connect 19 0 21 0;
#X connect 20 0 21 1;
#X connect 21 0 22 0;
#X connect 22 0 11 0;
#X connect 23 0 11 0;
#X connect 24 0 33 0;
#X connect 25 0 34 0;
#X connect 26 0 35 0;
#X connect 27 0 36 0;
#X connect 28 0 11 0;
#X connect 29 0 11 0;
#X connect 30 0 11 0;
#X connect 31 0 11 0;
#X connect 32 0 19 0;
#X connect 32 1 18 0;
#X connect 32 1 23 0;
#X connect 32 1 28 0;
#X connect 32 1 29 0;
#X connect 32 1 30 0;
#X connect 32 1 31 0;
#X connect 32 1 44 0;
#X connect 32 1 45 0;
#X connect 32 1 46 0;
#X connect 32 2 17 0;
#X connect 37 0 1 0;
#X connect 37 1 2 0;
#X connect 37 2 24 0;
#X connect 37 3 25 0;
#X connect 37 4 26 0;
#X connect 37 5 27 0;
#X connect 37 6 38 0;
#X connect 37 7 39 0;
#X connect 37 8 40 0;
#X connect 38 0 41 0;
#X connect 39 0 42 0;
#X connect 40 0 43 0;
#X connect 44 0 11 0;
#X connect 45 0 11 0;
#X connect 46 0 11 0;
#X restore 23 214 pd memory;
#N canvas 684 468 329 300 synth 0;
#X obj 53 169 phasor~;
#X obj 129 169 phasor~;
#X obj 207 169 phasor~;
#X obj 53 133 *;
#X obj 207 133 *;
#X floatatom 68 48 5 0 0 0 - #0-detune-minus -;
#X floatatom 222 49 5 0 0 0 - #0-detune-plus -;
#X obj 129 203 *~ 0.333;
#X obj 129 242 outlet~ audio;
#X obj 68 71 + -1;
#X obj 129 71 inlet freq;
#X obj 222 71 + 1;
#X connect 0 0 7 0;
#X connect 1 0 7 0;
#X connect 2 0 7 0;
#X connect 3 0 0 0;
#X connect 4 0 2 0;
#X connect 5 0 9 0;
#X connect 6 0 11 0;
#X connect 7 0 8 0;
#X connect 9 0 3 1;
#X connect 10 0 3 0;
#X connect 10 0 1 0;
#X connect 10 0 4 0;
#X connect 11 0 4 1;
#X restore 23 313 pd synth;
#N canvas 25 704 450 300 filter 1;
#X obj 48 28 inlet~;
#X obj 141 81 *;
#X obj 141 156 pack 0 300;
#X obj 141 178 line~;
#X obj 49 222 vcf~ 220 3;
#X obj 49 262 outlet~;
#X obj 141 27 inlet float;
#X obj 233 46 * 25;
#X obj 233 27 receive \$0-detune-multi;
#X obj 233 90 receive \$0-detune-speed;
#X obj 233 109 * 990;
#X obj 233 128 + 10;
#X obj 233 190 * 25;
#X obj 233 171 receive \$0-detune-sharpness;
#X floatatom 233 66 5 0 0 0 - - -;
#X floatatom 233 148 5 0 0 0 - - -;
#X floatatom 233 210 5 0 0 0 - - -;
#X connect 0 0 4 0;
#X connect 1 0 2 0;
#X connect 2 0 3 0;
#X connect 3 0 4 1;
#X connect 4 0 5 0;
#X connect 6 0 1 0;
#X connect 7 0 1 1;
#X connect 7 0 14 0;
#X connect 8 0 7 0;
#X connect 9 0 10 0;
#X connect 10 0 11 0;
#X connect 11 0 2 1;
#X connect 11 0 15 0;
#X connect 12 0 4 2;
#X connect 12 0 16 0;
#X connect 13 0 12 0;
#X restore 22 345 pd filter;
#X obj 134 280 inlet bang;
#N canvas 1133 655 609 383 envelope 0;
#X obj 169 29 inlet bang;
#X obj 48 296 *~;
#X obj 49 29 inlet~ audio;
#X obj 47 341 outlet~ audio;
#X obj 87 257 vline~;
#X obj 169 70 bng 15 250 50 0 empty empty empty 17 7 0 10 -262144 -1
-1;
#X obj 205 101 * 2000;
#X obj 205 68 r \$0-detune-a;
#X obj 169 257 print envelope;
#X obj 295 101 * 2000;
#X obj 295 68 r \$0-detune-d;
#X obj 385 68 r \$0-detune-s;
#X obj 385 101 * 1;
#X obj 475 68 r \$0-detune-r;
#X obj 475 101 * 2000;
#X msg 169 201 1 \$2 \, \$4 \$3 \, 0 1000 \$5;
#X obj 169 177 pack s f f f f;
#X connect 0 0 5 0;
#X connect 1 0 3 0;
#X connect 2 0 1 0;
#X connect 4 0 1 1;
#X connect 5 0 16 0;
#X connect 6 0 16 1;
#X connect 7 0 6 0;
#X connect 9 0 16 2;
#X connect 10 0 9 0;
#X connect 11 0 12 0;
#X connect 12 0 16 3;
#X connect 13 0 14 0;
#X connect 14 0 16 4;
#X connect 15 0 4 0;
#X connect 15 0 8 0;
#X connect 16 0 15 0;
#X restore 22 378 pd envelope;
#X obj 120 54 vsl 15 128 0 1 0 0 \$0-detune-a \$0-detune-patch-a A
0 -9 0 10 -204786 -1 -1 900 1;
#X obj 141 54 vsl 15 128 0 1 0 0 \$0-detune-d \$0-detune-patch-d D
0 -9 0 10 -204786 -1 -1 1500 1;
#X obj 162 54 vsl 15 128 0 1 0 0 \$0-detune-s \$0-detune-patch-s S
0 -9 0 10 -204786 -1 -1 3100 1;
#X obj 183 54 vsl 15 128 0 1 0 0 \$0-detune-r \$0-detune-patch-r R
0 -9 0 10 -204786 -1 -1 2400 1;
#X obj 218 54 vsl 15 128 0 1 0 0 \$0-detune-multi \$0-detune-patch-multi
f* 0 -9 0 10 -261682 -1 -1 7600 1;
#X obj 238 54 vsl 15 128 0 1 0 0 \$0-detune-speed \$0-detune-patch-speed
fsp 0 -9 0 10 -261682 -1 -1 6000 1;
#X obj 258 54 vsl 15 128 0 1 0 0 \$0-detune-sharpness \$0-detune-patch-sharpness
fsh 0 -9 0 10 -261682 -1 -1 500 1;
#X obj 171 328 bng 15 250 50 0 empty empty empty 17 7 0 10 -262144
-1 -1;
#X connect 4 0 9 0;
#X connect 4 0 10 1;
#X connect 9 0 10 0;
#X connect 10 0 12 0;
#X connect 11 0 12 1;
#X connect 11 0 20 0;
#X connect 12 0 2 0;
#X coords 0 -1 1 1 270 170 1 8 20;
