#N canvas 67 538 312 503 10;
#X obj 27 386 phasor~;
#X obj 103 386 phasor~;
#X obj 181 386 phasor~;
#X obj 27 350 *;
#X obj 181 350 *;
#X obj 34 45 vsl 30 128 0.01 1 1 0 \$0-detune-minus \$0-detune-patch-minus
- 0 -9 0 10 -4032 -1 -1 0 1;
#X floatatom 45 265 5 0 0 0 - #0-detune-minus -, f 5;
#X floatatom 199 266 5 0 0 0 - #0-detune-plus -, f 5;
#X obj 103 420 *~ 0.333;
#X obj 69 45 vsl 30 128 0.01 1 1 0 \$0-detune-plus \$0-detune-patch-plus
+ 0 -9 0 10 -260097 -1 -1 0 1;
#X obj 103 459 outlet~ audio;
#X text 11 7 Additive double detune synthesizer;
#X obj 45 288 + -1;
#X obj 103 288 inlet freq;
#X obj 199 288 + 1;
#X obj 12 44 vradio 14 1 0 8 \$0-detune-patch-number empty mem 0 -8
0 10 -228856 -1 -1 1;
#X text 21 244 the actual synth;
#X obj 12 160 bng 15 250 50 0 \$0-save empty empty 17 7 0 10 -262144
-1 -1;
#N canvas 839 359 487 702 memory 0;
#X obj 39 560 receive \$0-detune;
#X obj 39 581 route minus plus;
#X obj 39 602 / 127;
#X obj 83 602 / 127;
#X obj 39 623 send \$0-detune-patch-minus;
#X obj 39 644 send \$0-detune-patch-plus;
#X obj 80 131 textfile;
#X msg 80 83 read ../mem/detune-\$1.txt;
#X floatatom 80 63 5 0 0 0 - #0-detune-patch-number -, f 5;
#X msg 37 131 bang;
#X msg 90 107 rewind;
#X obj 80 153 send \$0-detune;
#X obj 390 488 textfile;
#X obj 132 226 receive \$0-save;
#X text 37 37 Loading;
#X text 39 206 Storing;
#X text 38 538 Assigning;
#X floatatom 98 380 5 0 0 0 - #0-detune-patch-number -, f 5;
#X msg 390 271 clear;
#X obj 171 294 ../util/param \$0-detune minus;
#X obj 132 254 t b b b;
#X msg 37 405 write;
#X msg 98 405 ../mem/detune-\$1.txt \;;
#X obj 37 447 list;
#X msg 37 471 \$1 \$2;
#X obj 171 314 ../util/param \$0-detune plus;
#X connect 0 0 1 0;
#X connect 1 0 2 0;
#X connect 1 1 3 0;
#X connect 2 0 4 0;
#X connect 3 0 5 0;
#X connect 6 0 11 0;
#X connect 6 0 9 0;
#X connect 7 0 6 0;
#X connect 7 0 10 0;
#X connect 7 0 9 0;
#X connect 8 0 7 0;
#X connect 9 0 6 0;
#X connect 10 0 6 0;
#X connect 13 0 20 0;
#X connect 17 0 22 0;
#X connect 18 0 12 0;
#X connect 19 0 12 0;
#X connect 20 0 21 0;
#X connect 20 1 19 0;
#X connect 20 1 25 0;
#X connect 20 2 18 0;
#X connect 21 0 23 0;
#X connect 22 0 23 1;
#X connect 23 0 24 0;
#X connect 24 0 12 0;
#X connect 25 0 12 0;
#X restore 229 32 pd memory;
#X connect 0 0 8 0;
#X connect 1 0 8 0;
#X connect 2 0 8 0;
#X connect 3 0 0 0;
#X connect 4 0 2 0;
#X connect 6 0 12 0;
#X connect 7 0 14 0;
#X connect 8 0 10 0;
#X connect 12 0 3 1;
#X connect 13 0 3 0;
#X connect 13 0 1 0;
#X connect 13 0 4 0;
#X connect 14 0 4 1;
#X coords 0 -1 1 1 95 160 1 8 20;
