#N canvas 58 297 450 300 10;
#X obj 143 132 textfile;
#X obj 143 23 bng 15 250 50 0 empty empty empty 17 7 0 10 -262144 -1
-1;
#X obj 143 46 symbol \$1;
#X msg 143 72 read ../pattern/\$1 cr;
#X msg 330 96 bang;
#X msg 240 162 rewind;
#X obj 168 22 loadbang;
#X obj 143 225 outlet frequency;
#X obj 143 194 mtof;
#X obj 330 72 inlet ctrl;
#X obj 143 163 ntom;
#X connect 0 0 10 0;
#X connect 0 1 5 0;
#X connect 1 0 2 0;
#X connect 2 0 3 0;
#X connect 3 0 0 0;
#X connect 4 0 0 0;
#X connect 5 0 0 0;
#X connect 5 0 4 0;
#X connect 6 0 2 0;
#X connect 8 0 7 0;
#X connect 9 0 4 0;
#X connect 10 0 8 0;
