#N canvas 1 140 450 300 10;
#X obj 107 139 metro;
#X msg 48 88 bang;
#X msg 91 88 stop;
#X obj 107 190 outlet bang;
#X obj 134 76 / 60;
#X obj 134 96 pow -1;
#X obj 134 116 * 1000;
#X floatatom 181 158 5 0 0 0 ms - -;
#X obj 48 171 bng 15 250 50 0 empty empty beat 17 7 0 10 -262144 -1
-1;
#X obj 48 23 inlet;
#X obj 48 50 route start stop float;
#X connect 0 0 3 0;
#X connect 0 0 8 0;
#X connect 1 0 0 0;
#X connect 2 0 0 0;
#X connect 4 0 5 0;
#X connect 5 0 6 0;
#X connect 6 0 0 1;
#X connect 6 0 7 0;
#X connect 9 0 10 0;
#X connect 10 0 1 0;
#X connect 10 1 2 0;
#X connect 10 2 4 0;
