#N canvas 27 130 341 352 10;
#X obj 9 33 inlet note;
#X text 12 7 Translate standard notation to midi values;
#N canvas 629 182 460 300 contra 0;
#X obj 18 264 outlet midivalue;
#X obj 46 125 21;
#X obj 73 125 22;
#X obj 100 125 23;
#X obj 127 125 24;
#X obj 154 125 25;
#X obj 181 125 26;
#X obj 208 125 27;
#X obj 235 125 28;
#X obj 262 125 29;
#X obj 289 125 30;
#X obj 343 125 32;
#X obj 316 125 31;
#X obj 18 21 inlet note;
#X obj 356 264 outlet else;
#X obj 18 125 20;
#X obj 18 55 route Ab2 A2 A#2 Bb2 B2 C1 C#1 Db1 D1 D#1 Eb1 E1 F1 F#1
Gb1 G1 G#1;
#X connect 1 0 0 0;
#X connect 2 0 0 0;
#X connect 3 0 0 0;
#X connect 4 0 0 0;
#X connect 5 0 0 0;
#X connect 6 0 0 0;
#X connect 7 0 0 0;
#X connect 8 0 0 0;
#X connect 9 0 0 0;
#X connect 10 0 0 0;
#X connect 11 0 0 0;
#X connect 12 0 0 0;
#X connect 13 0 16 0;
#X connect 15 0 0 0;
#X connect 16 0 15 0;
#X connect 16 1 1 0;
#X connect 16 2 2 0;
#X connect 16 3 2 0;
#X connect 16 4 3 0;
#X connect 16 5 4 0;
#X connect 16 6 5 0;
#X connect 16 7 5 0;
#X connect 16 8 6 0;
#X connect 16 9 7 0;
#X connect 16 10 7 0;
#X connect 16 11 8 0;
#X connect 16 12 9 0;
#X connect 16 13 10 0;
#X connect 16 14 10 0;
#X connect 16 15 12 0;
#X connect 16 16 11 0;
#X connect 16 17 14 0;
#X restore 22 103 pd contra;
#X obj 9 321 outlet midivalue;
#N canvas 633 586 450 300 large 0;
#X obj 18 264 outlet midivalue;
#X obj 18 21 inlet note;
#X obj 356 264 outlet else;
#X obj 18 55 route Ab1 A1 A#1 Bb1 B1 C C# Db D D# Eb E F F# Gb G G#
;
#X obj 18 125 32;
#X obj 46 125 33;
#X obj 73 125 34;
#X obj 100 125 35;
#X obj 127 125 36;
#X obj 154 125 37;
#X obj 181 125 38;
#X obj 208 125 39;
#X obj 235 125 40;
#X obj 262 125 41;
#X obj 289 125 42;
#X obj 316 125 43;
#X obj 343 125 44;
#X connect 1 0 3 0;
#X connect 3 0 4 0;
#X connect 3 1 5 0;
#X connect 3 2 6 0;
#X connect 3 3 6 0;
#X connect 3 4 7 0;
#X connect 3 5 8 0;
#X connect 3 6 9 0;
#X connect 3 7 9 0;
#X connect 3 8 10 0;
#X connect 3 9 11 0;
#X connect 3 10 11 0;
#X connect 3 11 12 0;
#X connect 3 12 13 0;
#X connect 3 13 14 0;
#X connect 3 14 14 0;
#X connect 3 15 15 0;
#X connect 3 16 16 0;
#X connect 3 17 2 0;
#X connect 4 0 0 0;
#X connect 5 0 0 0;
#X connect 6 0 0 0;
#X connect 7 0 0 0;
#X connect 8 0 0 0;
#X connect 9 0 0 0;
#X connect 10 0 0 0;
#X connect 11 0 0 0;
#X connect 12 0 0 0;
#X connect 13 0 0 0;
#X connect 14 0 0 0;
#X connect 15 0 0 0;
#X connect 16 0 0 0;
#X restore 33 130 pd large;
#N canvas 576 738 450 300 small 0;
#X obj 18 264 outlet midivalue;
#X obj 18 21 inlet note;
#X obj 356 264 outlet else;
#X obj 18 55 route Ab A A# Bb B c c# db d d# db e f f# gb g g#;
#X obj 18 125 44;
#X obj 46 125 45;
#X obj 73 125 46;
#X obj 100 125 47;
#X obj 127 125 48;
#X obj 154 125 49;
#X obj 181 125 50;
#X obj 208 125 51;
#X obj 235 125 52;
#X obj 262 125 53;
#X obj 289 125 54;
#X obj 316 125 55;
#X obj 343 125 56;
#X connect 1 0 3 0;
#X connect 3 0 4 0;
#X connect 3 1 5 0;
#X connect 3 2 6 0;
#X connect 3 3 6 0;
#X connect 3 4 7 0;
#X connect 3 5 8 0;
#X connect 3 6 9 0;
#X connect 3 7 9 0;
#X connect 3 8 10 0;
#X connect 3 9 11 0;
#X connect 3 10 11 0;
#X connect 3 11 12 0;
#X connect 3 12 13 0;
#X connect 3 13 14 0;
#X connect 3 14 14 0;
#X connect 3 15 15 0;
#X connect 3 16 16 0;
#X connect 3 17 2 0;
#X connect 4 0 0 0;
#X connect 5 0 0 0;
#X connect 6 0 0 0;
#X connect 7 0 0 0;
#X connect 8 0 0 0;
#X connect 9 0 0 0;
#X connect 10 0 0 0;
#X connect 11 0 0 0;
#X connect 12 0 0 0;
#X connect 13 0 0 0;
#X connect 14 0 0 0;
#X connect 15 0 0 0;
#X connect 16 0 0 0;
#X restore 44 157 pd small;
#N canvas 574 753 450 300 struckonce 0;
#X obj 18 264 outlet midivalue;
#X obj 18 21 inlet note;
#X obj 356 264 outlet else;
#X obj 18 55 route ab a a# bb b c1 c#1 db1 d1 d#1 db1 e1 f1 f#1 gb1
g1 g#1;
#X obj 18 125 56;
#X obj 46 125 57;
#X obj 73 125 58;
#X obj 100 125 59;
#X obj 127 125 60;
#X obj 154 125 61;
#X obj 181 125 62;
#X obj 208 125 63;
#X obj 235 125 64;
#X obj 262 125 65;
#X obj 289 125 66;
#X obj 316 125 67;
#X obj 343 125 68;
#X connect 1 0 3 0;
#X connect 3 0 4 0;
#X connect 3 1 5 0;
#X connect 3 2 6 0;
#X connect 3 3 6 0;
#X connect 3 4 7 0;
#X connect 3 5 8 0;
#X connect 3 6 9 0;
#X connect 3 7 9 0;
#X connect 3 8 10 0;
#X connect 3 9 11 0;
#X connect 3 10 11 0;
#X connect 3 11 12 0;
#X connect 3 12 13 0;
#X connect 3 13 14 0;
#X connect 3 14 14 0;
#X connect 3 15 15 0;
#X connect 3 16 16 0;
#X connect 3 17 2 0;
#X connect 4 0 0 0;
#X connect 5 0 0 0;
#X connect 6 0 0 0;
#X connect 7 0 0 0;
#X connect 8 0 0 0;
#X connect 9 0 0 0;
#X connect 10 0 0 0;
#X connect 11 0 0 0;
#X connect 12 0 0 0;
#X connect 13 0 0 0;
#X connect 14 0 0 0;
#X connect 15 0 0 0;
#X connect 16 0 0 0;
#X restore 54 184 pd struckonce;
#N canvas 576 482 450 300 strucktwice 0;
#X obj 18 264 outlet midivalue;
#X obj 18 21 inlet note;
#X obj 356 264 outlet else;
#X obj 18 55 route ab1 a1 a#1 bb1 b1 c2 c#2 db2 d2 d#2 db2 e2 f2 f#2
gb2 g2 g#2;
#X obj 18 125 68;
#X obj 46 125 69;
#X obj 73 125 70;
#X obj 100 125 71;
#X obj 127 125 72;
#X obj 154 125 73;
#X obj 181 125 74;
#X obj 208 125 75;
#X obj 235 125 76;
#X obj 262 125 77;
#X obj 289 125 78;
#X obj 316 125 79;
#X obj 343 125 80;
#X connect 1 0 3 0;
#X connect 3 0 4 0;
#X connect 3 1 5 0;
#X connect 3 2 6 0;
#X connect 3 3 6 0;
#X connect 3 4 7 0;
#X connect 3 5 8 0;
#X connect 3 6 9 0;
#X connect 3 7 9 0;
#X connect 3 8 10 0;
#X connect 3 9 11 0;
#X connect 3 10 11 0;
#X connect 3 11 12 0;
#X connect 3 12 13 0;
#X connect 3 13 14 0;
#X connect 3 14 14 0;
#X connect 3 15 15 0;
#X connect 3 16 16 0;
#X connect 3 17 2 0;
#X connect 4 0 0 0;
#X connect 5 0 0 0;
#X connect 6 0 0 0;
#X connect 7 0 0 0;
#X connect 8 0 0 0;
#X connect 9 0 0 0;
#X connect 10 0 0 0;
#X connect 11 0 0 0;
#X connect 12 0 0 0;
#X connect 13 0 0 0;
#X connect 14 0 0 0;
#X connect 15 0 0 0;
#X connect 16 0 0 0;
#X restore 64 211 pd strucktwice;
#N canvas 574 497 450 300 struckthrice 0;
#X obj 18 264 outlet midivalue;
#X obj 18 21 inlet note;
#X obj 356 264 outlet else;
#X obj 18 55 route ab2 a2 a#2 bb2 b2 c3 c#3 db3 d3 d#3 db3 e3 f3 f#3
gb3 g3 g#3;
#X obj 18 125 80;
#X obj 46 125 81;
#X obj 73 125 82;
#X obj 100 125 83;
#X obj 127 125 84;
#X obj 154 125 85;
#X obj 181 125 86;
#X obj 208 125 87;
#X obj 235 125 88;
#X obj 262 125 89;
#X obj 289 125 90;
#X obj 316 125 91;
#X obj 343 125 92;
#X connect 1 0 3 0;
#X connect 3 0 4 0;
#X connect 3 1 5 0;
#X connect 3 2 6 0;
#X connect 3 3 6 0;
#X connect 3 4 7 0;
#X connect 3 5 8 0;
#X connect 3 6 9 0;
#X connect 3 7 9 0;
#X connect 3 8 10 0;
#X connect 3 9 11 0;
#X connect 3 10 11 0;
#X connect 3 11 12 0;
#X connect 3 12 13 0;
#X connect 3 13 14 0;
#X connect 3 14 14 0;
#X connect 3 15 15 0;
#X connect 3 16 16 0;
#X connect 3 17 2 0;
#X connect 4 0 0 0;
#X connect 5 0 0 0;
#X connect 6 0 0 0;
#X connect 7 0 0 0;
#X connect 8 0 0 0;
#X connect 9 0 0 0;
#X connect 10 0 0 0;
#X connect 11 0 0 0;
#X connect 12 0 0 0;
#X connect 13 0 0 0;
#X connect 14 0 0 0;
#X connect 15 0 0 0;
#X connect 16 0 0 0;
#X restore 81 238 pd struckthrice;
#X obj 9 78 route float;
#N canvas 590 229 450 300 struckfrice 1;
#X obj 18 264 outlet midivalue;
#X obj 18 21 inlet note;
#X obj 356 264 outlet else;
#X obj 18 55 route ab3 a3 a#3 bb3 b3 c4 c#4 db4 d4 d#4 db4 e4 f4 f#4
gb4 g4 g#4;
#X obj 18 125 92;
#X obj 46 125 93;
#X obj 73 125 94;
#X obj 100 125 95;
#X obj 127 125 96;
#X obj 154 125 97;
#X obj 181 125 98;
#X obj 208 125 99;
#X obj 235 125 100;
#X obj 262 125 101;
#X obj 289 125 102;
#X obj 316 125 103;
#X obj 343 125 104;
#X connect 1 0 3 0;
#X connect 3 0 4 0;
#X connect 3 1 5 0;
#X connect 3 2 6 0;
#X connect 3 3 6 0;
#X connect 3 4 7 0;
#X connect 3 5 8 0;
#X connect 3 6 9 0;
#X connect 3 7 9 0;
#X connect 3 8 10 0;
#X connect 3 9 11 0;
#X connect 3 10 11 0;
#X connect 3 11 12 0;
#X connect 3 12 13 0;
#X connect 3 13 14 0;
#X connect 3 14 14 0;
#X connect 3 15 15 0;
#X connect 3 16 16 0;
#X connect 3 17 2 0;
#X connect 4 0 0 0;
#X connect 5 0 0 0;
#X connect 6 0 0 0;
#X connect 7 0 0 0;
#X connect 8 0 0 0;
#X connect 9 0 0 0;
#X connect 10 0 0 0;
#X connect 11 0 0 0;
#X connect 12 0 0 0;
#X connect 13 0 0 0;
#X connect 14 0 0 0;
#X connect 15 0 0 0;
#X connect 16 0 0 0;
#X restore 95 265 pd struckfrice;
#X obj 190 320 print unknown note;
#X connect 0 0 9 0;
#X connect 2 0 3 0;
#X connect 2 1 4 0;
#X connect 4 0 3 0;
#X connect 4 1 5 0;
#X connect 5 0 3 0;
#X connect 5 1 6 0;
#X connect 6 0 3 0;
#X connect 6 1 7 0;
#X connect 7 0 3 0;
#X connect 7 1 8 0;
#X connect 8 0 3 0;
#X connect 8 1 10 0;
#X connect 9 0 3 0;
#X connect 9 1 2 0;
#X connect 10 0 3 0;
#X connect 10 1 11 0;
