#N canvas 389 719 433 256 10;
#X obj 183 54 receive \$1-\$2;
#X obj 183 85 * 127;
#X obj 183 117 int;
#X obj 21 221 outlet param;
#X obj 21 18 inlet bang;
#X obj 91 85 symbol \$2;
#X obj 91 54 loadbang;
#X obj 73 54 bng 15 250 50 0 empty empty empty 17 7 0 10 -262144 -1
-1;
#X obj 21 170 pack s s f;
#X msg 21 54 add;
#X msg 21 195 \$1 \$2 \$3;
#X text 169 157 receive param \$1-\$2 and create a textfile command
add \$2 (value), f 33;
#X connect 0 0 1 0;
#X connect 1 0 2 0;
#X connect 2 0 8 2;
#X connect 4 0 9 0;
#X connect 5 0 8 1;
#X connect 6 0 5 0;
#X connect 7 0 5 0;
#X connect 8 0 10 0;
#X connect 9 0 8 0;
#X connect 10 0 3 0;
